<?xml version="1.0" encoding="utf-8"?>
<!-- Generator: Adobe Illustrator 24.1.1, SVG Export Plug-In . SVG Version: 6.00 Build 0)  -->
<svg version="1.1" id="Layer_2" xmlns="http://www.w3.org/2000/svg" xmlns:xlink="http://www.w3.org/1999/xlink" x="0px" y="0px"
	 viewBox="0 0 1200 1200" style="enable-background:new 0 0 1200 1200;" xml:space="preserve">
<style type="text/css">
	.st0{fill:#0095CB;}
	.st1{fill:#697B89;}
</style>
<path class="st0" d="M352.3,863.9c-50.1-10.1-102.1-24.2-142.7-56.8C168.4,774,160.8,713,167,663.6c4.1-33.1,14.4-65.1,26-96.3
	c22.2-59.7,47.9-118.2,77.9-174.4c40.4-75.6,89.3-145.9,143.8-212C461.3,124.4,520.9,67,599.2,67h1.5c78.3,0,137.9,57.3,184.6,113.9
	c54.5,66.1,103.4,136.4,143.8,212c30,56.2,55.7,114.6,77.9,174.4c11.6,31.2,21.8,63.1,26,96.3c6.2,49.4-1.4,110.4-42.6,143.5
	c-40.6,32.7-92.6,46.7-142.7,56.8c-82.7,16.6-165.2,24.9-247.7,24.9C517.5,888.9,434.9,880.6,352.3,863.9z M600,853.5
	c56.6,0,113.3-5.7,170-17.1c34.4-6.9,70.1-16.6,97.9-39c28.3-22.7,33.4-64.6,29.2-98.5c-2.8-22.7-9.9-44.7-17.8-66.1
	c-15.2-41-32.8-81.1-53.4-119.6c-27.7-51.9-61.3-100.1-98.6-145.4c-32-38.8-72.9-78.2-126.6-78.2h-1.1c-53.7,0-94.6,39.3-126.6,78.2
	c-37.4,45.3-70.9,93.6-98.6,145.4c-20.6,38.6-38.2,78.7-53.4,119.6c-7.9,21.4-15,43.3-17.8,66.1c-4.2,33.9,0.9,75.7,29.2,98.5
	c27.8,22.4,63.5,32.1,97.9,39C486.7,847.8,543.4,853.5,600,853.5z"/>
<g>
	<g>
		<path class="st1" d="M259.8,987.2l-47.7,116c-0.5,1.6-1.5,2.9-2.8,4c-1.4,1-2.8,1.5-4.3,1.5c-2.6,0-4.5-0.7-5.7-2.1
			c-1.2-1.4-1.9-3.1-2-5c0-0.9,0.1-2,0.4-3L250.3,971c0.8-1.9,1.9-3.3,3.3-4.3c1.4-0.9,3-1.4,4.8-1.2c1.8,0,3.3,0.5,4.8,1.4
			c1.4,0.9,2.4,2.3,2.9,4.1l52.3,126.4c0.4,1.1,0.6,2.2,0.6,3.2c0,2.4-0.8,4.4-2.4,5.9c-1.6,1.5-3.4,2.2-5.5,2.2
			c-1.8,0-3.3-0.5-4.7-1.5c-1.4-1-2.4-2.4-3-4.2l-48.3-116L259.8,987.2z M222.3,1070.2l6.9-15.8h60.2l3,15.8H222.3z"/>
		<path class="st1" d="M400,966.2c10,0,18.8,1.9,26.3,5.6c7.5,3.7,13.8,8.9,18.8,15.5c5,6.6,8.8,14.2,11.3,22.8
			c2.5,8.6,3.8,17.6,3.8,27.1c0,13.1-2.2,25-6.7,35.8s-11.1,19.3-20,25.7c-8.9,6.4-20,9.5-33.4,9.5h-50.5c-2.3,0-4.3-0.8-5.9-2.4
			c-1.6-1.6-2.4-3.6-2.4-5.9V974.5c0-2.3,0.8-4.3,2.4-5.9c1.6-1.6,3.6-2.4,5.9-2.4H400z M398,1092.3c10.5,0,19.1-2.5,25.6-7.5
			c6.5-5,11.3-11.7,14.3-20.1c3-8.4,4.6-17.6,4.6-27.6c0-7.3-0.8-14.3-2.5-20.9c-1.7-6.6-4.3-12.5-7.9-17.6
			c-3.6-5.1-8.2-9.2-13.8-12.2c-5.6-3-12.3-4.5-20.2-4.5h-41.4l1.6-1.8v114.2l-1.2-2H398z"/>
		<path class="st1" d="M589.6,965.9c2.4,0,4.5,0.7,6.1,2.2c1.6,1.5,2.4,3.3,2.4,5.5c0,1.2-0.3,2.5-0.8,3.9l-52.9,125.3
			c-0.8,1.8-1.9,3.1-3.3,4c-1.4,0.9-2.9,1.3-4.6,1.3c-1.5-0.1-2.9-0.6-4.4-1.5c-1.4-0.9-2.5-2.1-3.1-3.8l-52.5-125.1
			c-0.3-0.5-0.5-1.1-0.6-1.8c-0.1-0.7-0.2-1.3-0.2-2c0-2.4,0.9-4.4,2.7-5.9c1.8-1.5,3.6-2.2,5.4-2.2c3.7,0,6.3,1.9,7.9,5.7
			l48.5,115.6h-4.7l46.7-115.8C583.7,967.7,586.2,965.9,589.6,965.9z"/>
		<path class="st1" d="M630.6,966.2h72.2c2.3,0,4.3,0.8,5.9,2.3c1.6,1.6,2.4,3.5,2.4,5.8c0,2.3-0.8,4.2-2.4,5.6s-3.6,2.1-5.9,2.1
			h-65.3l1.8-3.4v51.1l-2-2.2h56.4c2.3,0,4.3,0.7,5.9,2.2c1.6,1.5,2.4,3.4,2.4,5.9c0,2.3-0.8,4.2-2.4,5.6c-1.6,1.4-3.6,2.1-5.9,2.1
			h-55.8l1.4-2v52.5l-1.2-1.4h64.7c2.3,0,4.3,0.8,5.9,2.4s2.4,3.4,2.4,5.5c0,2.3-0.8,4.2-2.4,5.7c-1.6,1.5-3.6,2.2-5.9,2.2h-72.2
			c-2.3,0-4.3-0.8-5.9-2.4c-1.6-1.6-2.4-3.6-2.4-5.9V974.5c0-2.3,0.8-4.3,2.4-5.9C626.3,967,628.3,966.2,630.6,966.2z"/>
		<path class="st1" d="M843.2,966.2c2.3,0,4.1,0.7,5.5,2.2c1.3,1.5,2,3.3,2,5.5v125.8c0,2.6-0.8,4.6-2.4,6.2
			c-1.6,1.6-3.7,2.3-6.1,2.3c-1.1,0-2.2-0.2-3.4-0.7c-1.2-0.5-2.2-1.1-2.8-1.9L749,990.7l4.1-2.2v112.2c0,2.2-0.7,4-2.1,5.4
			s-3.3,2.1-5.6,2.1c-2.3,0-4.1-0.7-5.5-2.1c-1.4-1.4-2-3.2-2-5.4V974.5c0-2.6,0.8-4.6,2.4-6.1c1.6-1.5,3.5-2.2,5.7-2.2
			c1.2,0,2.5,0.2,3.8,0.7c1.3,0.5,2.3,1.3,2.9,2.3l85.4,113l-2.4,3.2V973.9c0-2.2,0.7-4,2.1-5.5C839.2,966.9,841,966.2,843.2,966.2z
			"/>
		<path class="st1" d="M981.7,966.2c2.3,0,4.4,0.8,6.2,2.3c1.8,1.6,2.7,3.5,2.7,5.8c0,1.8-0.6,3.4-1.8,5.1l-87.2,114.6l-1.2-1.4
			h80.5c2.3,0,4.3,0.7,5.9,2.2c1.6,1.5,2.4,3.3,2.4,5.5c0,2.3-0.8,4.2-2.4,5.7c-1.6,1.5-3.6,2.2-5.9,2.2h-94.3
			c-2.4,0-4.5-0.9-6.2-2.6c-1.7-1.8-2.5-3.6-2.5-5.5c0-1.8,0.6-3.4,1.8-5.1l87.2-114.2l1.4,1h-75.7c-2.3,0-4.3-0.7-5.9-2.2
			c-1.6-1.5-2.4-3.4-2.4-5.7c0-2.3,0.8-4.2,2.4-5.6c1.6-1.4,3.6-2.1,5.9-2.1H981.7z"/>
	</g>
</g>
</svg>
