<svg width="1125" height="683" viewBox="0 0 1125 683" fill="none" xmlns="http://www.w3.org/2000/svg">
<path d="M0 0V683H1125V0H0ZM160.714 80.3529H964.286C964.286 101.664 972.752 122.102 987.822 137.171C1002.89 152.24 1023.33 160.706 1044.64 160.706V522.294C1023.33 522.294 1002.89 530.76 987.822 545.829C972.752 560.898 964.286 581.336 964.286 602.647H160.714C160.714 581.336 152.248 560.898 137.178 545.829C122.108 530.76 101.669 522.294 80.3571 522.294V160.706C101.669 160.706 122.108 152.24 137.178 137.171C152.248 122.102 160.714 101.664 160.714 80.3529ZM562.5 160.706C473.665 160.706 401.786 241.702 401.786 341.5C401.786 441.298 473.665 522.294 562.5 522.294C651.335 522.294 723.214 441.298 723.214 341.5C723.214 241.702 651.335 160.706 562.5 160.706ZM562.5 241.059C606.777 241.059 642.857 286.097 642.857 341.5C642.857 396.903 606.777 441.941 562.5 441.941C518.223 441.941 482.143 396.903 482.143 341.5C482.143 286.097 518.223 241.059 562.5 241.059ZM261.161 281.235C253.244 281.238 245.405 282.8 238.091 285.832C230.778 288.864 224.133 293.307 218.537 298.906C212.94 304.506 208.502 311.154 205.474 318.469C202.447 325.784 200.89 333.623 200.893 341.54C200.895 349.457 202.457 357.296 205.49 364.609C208.522 371.922 212.965 378.566 218.565 384.162C224.165 389.758 230.813 394.197 238.128 397.224C245.444 400.251 253.284 401.808 261.201 401.805C277.19 401.8 292.523 395.443 303.825 384.134C315.127 372.824 321.474 357.489 321.469 341.5C321.463 325.511 315.107 310.18 303.797 298.878C292.487 287.576 277.15 281.23 261.161 281.235ZM863.839 281.235C855.922 281.238 848.083 282.8 840.77 285.832C833.456 288.864 826.812 293.307 821.215 298.906C815.619 304.506 811.18 311.154 808.153 318.469C805.126 325.784 803.569 333.623 803.571 341.54C803.574 349.457 805.136 357.296 808.168 364.609C811.2 371.922 815.643 378.566 821.244 384.162C826.844 389.758 833.491 394.197 840.807 397.224C848.122 400.251 855.962 401.808 863.879 401.805C879.869 401.8 895.201 395.443 906.504 384.134C917.806 372.824 924.153 357.489 924.147 341.5C924.142 325.511 917.785 310.18 906.475 298.878C895.165 287.576 879.829 281.23 863.839 281.235Z" fill="#4054B2"/>
</svg>
