<svg width="1073" height="1073" viewBox="0 0 1073 1073" fill="none" xmlns="http://www.w3.org/2000/svg">
<g clip-path="url(#clip0_181_24)">
<path d="M871.812 268.25C870.555 268.25 869.507 268.669 868.459 268.669C870.765 257.771 871.812 246.455 871.812 234.719C871.812 142.089 796.786 67.0625 704.156 67.0625C652.602 67.0625 607.125 90.7439 576.318 127.419C537.338 51.9734 459.588 0 368.844 0C239.12 0 134.125 104.995 134.125 234.719C134.125 250.017 135.802 264.687 138.526 279.148C58.2605 305.554 0 380.37 0 469.438C0 580.51 90.1152 670.625 201.188 670.625H871.812C982.885 670.625 1073 580.51 1073 469.438C1073 358.365 982.885 268.25 871.812 268.25ZM184.422 784.212C157.597 877.261 100.594 902.41 100.594 968.005C100.594 1026.06 145.651 1073 201.188 1073C256.724 1073 301.781 1026.06 301.781 968.005C301.781 902.2 244.778 877.68 217.953 784.212C213.343 767.237 189.661 766.399 184.422 784.212ZM519.734 784.212C492.909 877.261 435.906 902.41 435.906 968.005C435.906 1026.06 480.964 1073 536.5 1073C592.036 1073 637.094 1026.06 637.094 968.005C637.094 902.2 580.091 877.68 553.266 784.212C548.655 767.237 524.974 766.399 519.734 784.212ZM855.047 784.212C828.222 877.261 771.219 902.41 771.219 968.005C771.219 1026.06 816.276 1073 871.812 1073C927.349 1073 972.406 1026.06 972.406 968.005C972.406 902.2 915.403 877.68 888.578 784.212C883.968 767.237 860.286 766.399 855.047 784.212Z" fill="#4054B2"/>
</g>
<defs>
<clipPath id="clip0_181_24">
<rect width="1073" height="1073" fill="white"/>
</clipPath>
</defs>
</svg>
