<svg width="770" height="770" viewBox="0 0 770 770" fill="none" xmlns="http://www.w3.org/2000/svg">
<path d="M224.583 393.021C224.583 386.639 227.118 380.519 231.631 376.006C236.143 371.493 242.264 368.958 248.646 368.958C255.027 368.958 261.148 371.493 265.66 376.006C270.173 380.519 272.708 386.639 272.708 393.021C272.708 399.402 270.173 405.523 265.66 410.035C261.148 414.548 255.027 417.083 248.646 417.083C242.264 417.083 236.143 414.548 231.631 410.035C227.118 405.523 224.583 399.402 224.583 393.021ZM248.646 465.208C242.264 465.208 236.143 467.743 231.631 472.256C227.118 476.769 224.583 482.889 224.583 489.271C224.583 495.652 227.118 501.773 231.631 506.285C236.143 510.798 242.264 513.333 248.646 513.333C255.027 513.333 261.148 510.798 265.66 506.285C270.173 501.773 272.708 495.652 272.708 489.271C272.708 482.889 270.173 476.769 265.66 472.256C261.148 467.743 255.027 465.208 248.646 465.208ZM224.583 585.521C224.583 579.139 227.118 573.018 231.631 568.506C236.143 563.993 242.264 561.458 248.646 561.458C255.027 561.458 261.148 563.993 265.66 568.506C270.173 573.018 272.708 579.139 272.708 585.521C272.708 591.902 270.173 598.023 265.66 602.535C261.148 607.048 255.027 609.583 248.646 609.583C242.264 609.583 236.143 607.048 231.631 602.535C227.118 598.023 224.583 591.902 224.583 585.521ZM344.895 368.958C338.514 368.958 332.393 371.493 327.881 376.006C323.368 380.519 320.833 386.639 320.833 393.021C320.833 399.402 323.368 405.523 327.881 410.035C332.393 414.548 338.514 417.083 344.895 417.083H521.354C527.736 417.083 533.856 414.548 538.369 410.035C542.881 405.523 545.416 399.402 545.416 393.021C545.416 386.639 542.881 380.519 538.369 376.006C533.856 371.493 527.736 368.958 521.354 368.958H344.895ZM320.833 489.271C320.833 482.889 323.368 476.769 327.881 472.256C332.393 467.743 338.514 465.208 344.895 465.208H521.354C527.736 465.208 533.856 467.743 538.369 472.256C542.881 476.769 545.416 482.889 545.416 489.271C545.416 495.652 542.881 501.773 538.369 506.285C533.856 510.798 527.736 513.333 521.354 513.333H344.895C338.514 513.333 332.393 510.798 327.881 506.285C323.368 501.773 320.833 495.652 320.833 489.271ZM344.895 561.458C338.514 561.458 332.393 563.993 327.881 568.506C323.368 573.018 320.833 579.139 320.833 585.521C320.833 591.902 323.368 598.023 327.881 602.535C332.393 607.048 338.514 609.583 344.895 609.583H521.354C527.736 609.583 533.856 607.048 538.369 602.535C542.881 598.023 545.416 591.902 545.416 585.521C545.416 579.139 542.881 573.018 538.369 568.506C533.856 563.993 527.736 561.458 521.354 561.458H344.895ZM622.865 269.949L435.852 82.9673C435.356 82.5063 434.831 82.0777 434.28 81.684C433.883 81.3777 433.498 81.0566 433.125 80.7215C430.917 78.6384 428.57 76.7088 426.098 74.9465C425.277 74.4165 424.419 73.9448 423.532 73.5348L421.992 72.7648L420.388 71.8344C418.655 70.8398 416.891 69.8132 415.062 69.0432C408.673 66.4914 401.911 64.996 395.042 64.6157C394.407 64.5744 393.775 64.4994 393.149 64.3911C392.278 64.2566 391.399 64.1816 390.518 64.1665H192.5C175.482 64.1665 159.161 70.9269 147.127 82.9605C135.093 94.9941 128.333 111.315 128.333 128.333V641.666C128.333 658.685 135.093 675.006 147.127 687.039C159.161 699.073 175.482 705.833 192.5 705.833H577.5C594.518 705.833 610.839 699.073 622.872 687.039C634.906 675.006 641.666 658.685 641.666 641.666V315.315C641.663 298.298 634.9 281.98 622.865 269.949ZM593.541 641.666C593.541 645.921 591.851 650.001 588.843 653.01C585.834 656.018 581.754 657.708 577.5 657.708H192.5C188.245 657.708 184.165 656.018 181.157 653.01C178.148 650.001 176.458 645.921 176.458 641.666V128.333C176.458 124.079 178.148 119.998 181.157 116.99C184.165 113.982 188.245 112.292 192.5 112.292H385V256.666C385 273.685 391.76 290.006 403.794 302.039C415.827 314.073 432.148 320.833 449.166 320.833H593.541V641.666ZM433.125 148.257L557.544 272.708H449.166C444.912 272.708 440.832 271.018 437.823 268.01C434.815 265.001 433.125 260.921 433.125 256.666V148.257Z" fill="#4054B2"/>
</svg>
