<svg width="764" height="764" viewBox="0 0 764 764" fill="none" xmlns="http://www.w3.org/2000/svg">
<path d="M737.141 91.565L613.916 207.857L731.79 406.258L737.141 399.606V91.565ZM26.8594 93.2616V430.336C33.5444 431.205 41.5768 431.684 49.6824 431.769C67.3946 431.955 81.9942 430.799 90.1953 430.062L168.766 231.25L26.8594 93.2616ZM607.55 249.732L597.045 256.531C596.821 256.676 589.044 261.509 586.759 262.932L570.935 272.512L571.159 272.646C563.826 277.208 561.788 278.491 553.466 283.659C549.243 286.281 549.138 286.342 545.133 288.829C514.857 272.554 482.005 260.045 443.668 250.208C395.452 264.775 344.374 285.854 293.372 305.631C314.546 331.128 338.077 339.431 361.781 339.728C389.267 340.071 417.365 328.118 436.716 314.728L447.758 307.088L458.839 323.099L631.116 447.443L698.432 402.697L607.55 249.732ZM188.727 253.821L121.031 425.105L145.876 444.209L191.828 392.124L195.509 387.954L201.06 387.608C203.299 387.467 205.507 387.402 207.686 387.414C222.924 387.512 236.548 391.466 246.766 400.485C254.334 407.158 259.366 416.043 262.285 426.33L265.687 426.118C283.586 424.999 299.712 428.692 311.393 438.995C323.072 449.302 328.747 464.845 329.866 482.746L329.97 484.358C339.58 486.172 348.183 489.957 355.178 496.128C366.859 506.433 372.532 521.973 373.651 539.875L373.945 544.53C374.899 544.832 375.844 545.16 376.78 545.512L379.814 541.255L387.976 529.798L392.174 523.904L403.111 531.698L491.789 594.871C501.435 592.492 507.184 588.79 510.382 584.297C513.586 579.803 515.206 573.151 514.297 563.247L407.967 487.101L397.047 479.282L404.792 468.469L414.745 454.495L425.682 462.289L545.557 547.68C555.203 545.303 560.957 541.601 564.154 537.108C567.354 532.617 568.974 525.981 568.071 516.095L430.196 418.282L419.244 410.508L434.783 388.603L445.74 396.374L583.639 494.209C593.294 491.831 599.049 488.129 602.251 483.633C605.457 479.134 607.076 472.477 606.161 462.556L441.364 343.613C419.496 356.577 391.522 366.963 361.447 366.587C326.25 366.147 288.602 349.328 260.907 306.825C259.812 305.144 259.107 303.239 258.845 301.25C258.582 299.261 258.768 297.239 259.39 295.331C260.012 293.424 261.053 291.68 262.437 290.227C263.821 288.775 265.513 287.651 267.388 286.939C286.807 279.56 306.428 271.763 326.095 264.028L188.73 253.83L188.727 253.821ZM207.98 414.41L137.005 494.854C138.388 504.92 141.541 511.182 145.79 514.93C150.038 518.678 156.645 521.025 166.806 521.143L237.779 440.703C236.395 430.635 233.242 424.371 228.994 420.622C224.746 416.874 218.14 414.528 207.978 414.412L207.98 414.41ZM272.603 452.924L192.453 543.768C193.835 553.836 196.99 560.1 201.236 563.848C205.489 567.594 212.092 569.941 222.254 570.056L302.404 479.214C301.022 469.145 297.867 462.884 293.619 459.134C289.372 455.386 282.767 453.038 272.605 452.921L272.603 452.924ZM316.384 510.053L245.416 590.497C246.799 600.564 249.952 606.826 254.2 610.576C258.45 614.325 265.056 616.669 275.216 616.787L346.188 536.352C344.804 526.279 341.651 520.017 337.403 516.267C333.155 512.519 326.549 510.174 316.387 510.056L316.384 510.053ZM353.244 568.453L295.356 634.527C296.736 644.614 299.889 650.885 304.142 654.636C308.387 658.381 314.986 660.727 325.133 660.848L383.024 594.774C381.642 584.69 378.487 578.419 374.235 574.665C369.991 570.92 363.392 568.577 353.246 568.455L353.244 568.453ZM405.981 575.601C408.509 582.495 409.97 590.135 410.478 598.27L410.825 603.797L398.474 617.895L438.351 646.302C447.996 643.924 453.744 640.221 456.944 635.728C460.144 631.237 461.768 624.591 460.865 614.699L405.982 575.604L405.981 575.601Z" fill="#4054B2"/>
</svg>
