<svg width="1311" height="578" viewBox="0 0 1311 578" fill="none" xmlns="http://www.w3.org/2000/svg">
<path d="M289.34 289C314.347 289 338.792 281.585 359.585 267.691C380.377 253.798 396.583 234.052 406.153 210.948C415.723 187.845 418.227 162.422 413.348 137.896C408.469 113.369 396.427 90.8403 378.745 73.1577C361.062 55.4751 338.533 43.4331 314.007 38.5545C289.48 33.6759 264.058 36.1798 240.954 45.7495C217.851 55.3193 198.104 71.5251 184.211 92.3176C170.318 113.11 162.902 137.556 162.902 162.563C162.902 196.096 176.223 228.256 199.935 251.967C223.647 275.679 255.807 289 289.34 289ZM289.34 325.125C210.971 325.125 54.5273 373.533 54.5273 469.625V541.875H524.152V469.625C524.152 373.533 367.709 325.125 289.34 325.125Z" fill="#4054B2"/>
<path d="M967.812 289C992.819 289 1017.26 281.585 1038.06 267.691C1058.85 253.798 1075.06 234.052 1084.63 210.948C1094.2 187.845 1096.7 162.422 1091.82 137.896C1086.94 113.369 1074.9 90.8403 1057.22 73.1577C1039.53 55.4751 1017.01 43.4331 992.479 38.5545C967.953 33.6759 942.53 36.1798 919.427 45.7495C896.324 55.3193 876.577 71.5251 862.684 92.3176C848.79 113.11 841.375 137.556 841.375 162.563C841.375 196.096 854.696 228.256 878.408 251.967C902.119 275.679 934.279 289 967.812 289ZM967.812 325.125C889.444 325.125 733 373.533 733 469.625V541.875H1202.62V469.625C1202.62 373.533 1046.18 325.125 967.812 325.125Z" fill="#4054B2"/>
<path d="M624.625 289C649.632 289 674.077 281.585 694.87 267.691C715.662 253.798 731.868 234.052 741.438 210.948C751.008 187.845 753.512 162.422 748.633 137.896C743.754 113.369 731.712 90.8403 714.03 73.1577C696.347 55.4751 673.818 43.4331 649.292 38.5545C624.765 33.6759 599.343 36.1798 576.239 45.7495C553.136 55.3193 533.389 71.5251 519.496 92.3176C505.603 113.11 498.188 137.556 498.188 162.563C498.188 196.096 511.509 228.256 535.22 251.967C558.932 275.679 591.092 289 624.625 289ZM624.625 325.125C546.256 325.125 389.812 373.533 389.812 469.625V541.875H859.438V469.625C859.438 373.533 702.994 325.125 624.625 325.125Z" fill="#4054B2"/>
</svg>
